<?xml version="1.0" encoding="UTF-8"?>
<svg width="907px" height="176px" viewBox="0 0 907 176" version="1.1" xmlns="http://www.w3.org/2000/svg" xmlns:xlink="http://www.w3.org/1999/xlink">
    <!-- Generator: Sketch 41.1 (35376) - http://www.bohemiancoding.com/sketch -->
    <title>Logo</title>
    <desc>Created with Sketch.</desc>
    <defs></defs>
    <g id="Page-1" stroke="none" stroke-width="1" fill="none" fill-rule="evenodd">
        <g id="Artboard" transform="translate(-12.000000, -79.000000)">
            <g id="Logo" transform="translate(12.000000, 60.000000)">
                <g id="Icon" transform="translate(0.000000, 19.000000)" fill="#ABCD50">
                    <path d="M169.05591,66.4176534 L169.05591,65.5179778 C168.954823,65.5752606 168.762758,65.6594998 168.769497,65.6864564 C168.833519,65.9088481 168.931236,66.1177616 169.05591,66.4176534 L169.05591,66.4176534 Z M159.233609,49.8056659 C158.947196,50.2268624 158.788826,50.4593628 158.633826,50.6918632 C158.893283,50.8536027 159.15274,51.0153421 159.412197,51.1804511 C159.358284,50.7794721 159.30774,50.3784931 159.233609,49.8056659 L159.233609,49.8056659 Z M62.2775591,105.969684 C62.8672341,106.427945 63.0256039,106.620011 63.0997345,106.593054 C63.332235,106.508815 63.5344092,106.336967 63.7500618,106.202184 C63.4299525,106.151641 63.1132128,106.101097 62.2775591,105.969684 L62.2775591,105.969684 Z M170.376782,18.4518031 C170.093738,18.4315857 169.814064,18.4147378 169.53102,18.3945204 C169.618629,19.1627827 169.702868,19.931045 169.790477,20.7026769 C169.985912,20.6824594 170.181347,20.6656116 170.376782,20.6487637 L170.376782,18.4518031 Z M27.025102,39.5217337 C27.1228196,39.2420593 27.2205372,38.9657544 27.3148852,38.6894495 C26.7858624,38.5512971 26.2568397,38.4165142 25.7244474,38.2817314 C25.6671647,38.4839057 25.609882,38.68608 25.5525993,38.8882543 C26.0445567,39.0971677 26.5331446,39.3094507 27.025102,39.5217337 L27.025102,39.5217337 Z M49.2609044,73.4566883 C52.3979754,75.8356058 54.7196102,77.5978917 57.041245,79.356808 C57.206354,79.1815903 57.371463,79.0097421 57.536572,78.8345244 C56.1786347,76.5870202 54.8240669,74.3428856 53.3650425,71.9302724 C52.2800404,72.334621 51.434278,72.6479911 49.2609044,73.4566883 L49.2609044,73.4566883 Z M178.527776,30.2453034 C174.922334,34.5752027 174.649399,37.4258602 177.146252,41.563694 C177.661796,37.3416209 178.093101,33.7934621 178.527776,30.2453034 L178.527776,30.2453034 Z M33.1105482,81.8401822 C39.0039287,85.3108408 41.4468681,86.0521466 44.6749175,85.5702978 C42.0736084,83.6294247 39.4756687,81.691921 36.6553374,79.592678 C35.6377268,80.2362662 34.5931596,80.9000717 33.1105482,81.8401822 L33.1105482,81.8401822 Z M31.5639148,51.3084948 C38.1783837,53.4111074 44.789483,55.5170896 51.4039518,57.6197022 C45.7969849,52.1946921 39.1454507,50.2167536 31.5639148,51.3084948 L31.5639148,51.3084948 Z M176.256685,77.0553907 C182.982349,71.5697283 180.364192,63.4288435 182.456696,56.6122004 C177.345056,62.4988418 177.220382,69.8984208 176.256685,77.0553907 L176.256685,77.0553907 Z M83.9641213,113.659046 C84.0989041,114.053286 84.233687,114.447526 84.3718394,114.841765 C92.1690279,112.884044 99.3024107,118.130467 107.187208,116.388399 C99.8179552,116.354703 93.8201179,112.557196 87.6773891,109.231429 C86.2082559,110.983606 85.0861886,112.321326 83.9641213,113.659046 L83.9641213,113.659046 Z M78.9468293,69.7434205 C78.6671549,70.2387475 78.3874804,70.7374441 78.107806,71.2361407 C81.6492256,74.5652773 85.0019493,78.1336535 88.7792389,81.1696375 C93.9110963,85.2906234 99.1069756,84.9772533 105.276661,80.3137663 C96.2462094,76.6881074 87.5965193,73.2174487 78.9468293,69.7434205 L78.9468293,69.7434205 Z M139.450855,92.8721593 C139.080202,93.1686816 138.709549,93.4685734 138.338897,93.7650957 C140.764988,99.3686931 143.194449,104.972291 145.708149,110.781432 C152.336097,110.259148 157.157953,106.94349 162.886225,103.624462 C155.173276,97.9635818 147.322174,95.3925988 139.450855,92.8721593 L139.450855,92.8721593 Z M90.642612,105.912401 C90.548264,105.976423 90.453916,106.040445 90.3629375,106.104467 C90.4269594,106.006749 90.4909813,105.909031 90.5550031,105.811314 C93.9582703,104.726312 97.358168,103.63794 100.923175,102.499025 C101.364588,101.757719 101.917198,100.834457 102.574265,99.7359764 C105.226117,100.10326 107.672426,100.440217 110.452323,100.824348 C109.158407,99.0216273 108.167753,97.6434725 106.627859,95.5071642 C110.098518,94.4322709 112.821132,93.589878 115.762768,92.6767241 C116.012116,91.6759614 116.315377,90.4696548 116.6119,89.2700873 C121.898757,88.6500862 124.503436,93.3708559 128.792901,95.1668375 C128.220073,92.9462899 127.778659,91.2345475 127.279963,89.2970439 C122.006584,86.6081259 116.396247,84.8997531 110.512975,84.3201868 C108.865255,84.1584474 106.766012,84.6942093 105.455248,85.6781241 C98.5038223,90.90096 94.1772925,98.1387995 90.642612,105.912401 L90.642612,105.912401 Z M139.811399,121.553952 C140.148356,121.476452 140.485314,121.402321 140.013574,121.510147 C140.316835,121.132755 140.107922,121.392212 139.895639,121.655039 C139.214985,121.954931 138.530962,122.254823 137.850309,122.558084 C137.9952,122.763628 138.143461,122.972542 138.288353,123.178085 C138.797158,122.638954 139.302594,122.096453 139.811399,121.553952 L139.811399,121.553952 Z M64.7440854,67.482438 C64.5789764,67.293742 64.4138674,67.1016764 64.558759,67.270155 C64.3363673,67.1825462 64.582346,67.2802637 64.8283247,67.3779813 C65.148434,67.6509166 65.4651737,67.9204823 64.9698467,67.4959163 C65.6505001,67.5430903 65.1989776,67.5127642 64.7440854,67.482438 L64.7440854,67.482438 Z M157.592628,24.9146412 C156.817627,21.0901776 155.864038,17.2859314 155.338385,13.4244024 C155.06208,11.4060291 155.53719,9.28656862 155.69219,6.88406414 C157.457845,7.27156486 158.654043,7.53102187 159.62111,7.74330487 C160.699373,5.14873482 161.66644,2.81699134 162.633507,0.485247858 C163.101878,0.478508715 163.570248,0.471769572 164.038618,0.4684 C164.860794,3.1168832 165.682969,5.76873597 166.565797,8.61265432 C167.64406,7.9050443 168.651562,7.24460829 170.022977,6.34830227 C170.541891,8.25884931 170.956349,9.77178692 171.465154,11.6452687 C173.153309,10.0582005 174.63929,8.65982832 176.519511,6.89417285 C180.445062,11.5913555 179.12756,17.0298439 179.798104,22.0909403 C181.061694,21.959527 182.342131,21.8281137 183.946047,21.6630047 C185.078223,20.2680021 186.28116,18.2597375 187.972685,16.8344088 C189.620405,15.4427758 191.770192,14.6441873 194.098566,13.3671197 C196.949223,20.3016979 196.568462,26.1546436 192.508128,32.1322634 C194.759002,31.852589 196.538136,31.6335668 199.014771,31.3235662 C197.690529,39.5284728 190.60769,43.2754364 188.033337,49.1890343 C189.681058,50.5941457 191.177147,51.8678437 193.027042,53.4448031 C195.062263,50.3784931 197.245746,47.0864217 199.628033,43.4877194 C200.649013,44.5592431 201.279123,45.2163095 201.862059,45.8295716 C204.453259,44.1110901 207.054568,42.3824999 210.070335,40.3809744 C212.132512,46.4023987 210.838597,51.0861031 208.021635,56.0056775 C210.218596,55.8708946 211.76186,55.7765466 213.247841,55.6821986 C214.871974,61.0768826 212.954688,66.9365674 208.601202,69.6659204 C199.826837,75.1684306 190.705407,80.0003961 180.529301,82.3624658 C173.321788,84.0371428 170.959718,89.7687839 168.782975,95.7160776 C168.223626,97.2357544 168.021452,98.890214 167.583408,100.797391 C172.9107,108.510341 182.136587,113.645568 184.404309,123.942978 C183.578764,124.569718 182.844197,125.125698 181.540173,126.116352 C177.927992,117.71601 172.742222,110.939802 165.103403,105.716966 C159.664915,108.661971 153.731099,110.751106 150.465984,117.160031 C155.136211,129.560054 152.908924,140.871705 143.635863,150.939985 C143.154014,149.824657 142.631731,148.611611 141.779229,146.640412 C137.476286,154.343252 129.301706,155.350754 122.444628,159 C123.647565,156.580648 124.847132,154.157926 126.134309,151.566725 C125.271698,151.273573 124.402349,150.98042 123.317347,150.609767 C123.192673,147.67487 125.25485,146.074324 127.060941,144.200842 C128.809748,142.388012 130.231708,140.265182 131.798558,138.277135 L132.122037,138.283874 L131.889537,138.374853 C129.27138,139.203767 126.653223,140.032682 124.031696,140.858227 C123.634087,140.373009 123.233108,139.884421 122.835498,139.399203 C120.102776,143.11247 117.366684,146.825738 114.270047,151.030963 C112.561675,148.719437 111.766456,147.647914 110.758954,146.286607 C106.338076,150.82542 100.919805,150.397484 95.2319684,149.888679 C94.7770762,148.93172 94.3087058,147.944436 93.7897918,146.845956 C91.939897,147.230087 90.076524,147.617587 88.0480419,148.038784 C86.3228213,142.270077 90.4808725,139.031919 92.9204423,134.580715 C86.6766263,137.559417 81.1269421,136.420501 75.7255189,132.596038 C77.2182391,126.042221 82.2557485,124.219283 88.1524986,123.45439 C84.044991,121.698843 80.1497663,120.034275 76.2545417,118.366337 C76.0557369,116.465899 75.8906279,114.878831 75.7086711,113.163719 C73.0938836,114.447526 70.6475747,115.650463 68.3933313,116.755682 C63.5849528,114.878831 59.2213577,113.177197 54.2074353,111.222846 C52.2699317,112.05176 49.5742745,113.204154 47.7311189,113.989264 C42.5723049,113.463611 38.3199057,113.028936 33.6429405,112.550457 C34.2663112,110.094039 34.6538119,108.560884 35.1828346,106.475119 L27.2036893,106.475119 C28.4773873,103.900767 29.3804325,102.081198 30.0307598,100.767065 C25.609882,99.1934754 21.2597652,97.6434725 16.5389955,95.9586868 C19.2649789,90.3045458 23.9453137,89.7687839 28.6761921,88.6264992 C27.3586896,87.1068224 26.2164049,85.78932 24.9797721,84.3639912 C23.5140085,84.0068167 21.9673752,83.6260551 20.4578072,83.2587718 C20.7610686,79.1546337 20.9565038,78.79072 25.2830336,74.339516 C19.9894367,75.400931 15.6157329,79.4410473 9.30789507,77.4058261 C10.456919,75.4784312 11.4543121,73.8104933 12.6302926,71.839294 C8.37452376,71.1620101 4.15582024,70.4038565 1.70951133,65.8920003 C4.98810441,61.8687319 9.43256922,60.8174256 14.6621442,60.7601429 C14.5677962,59.4527491 14.4801873,58.2531817 14.3791002,56.8817661 C18.5708471,55.2003499 22.2672671,57.6837241 25.9973827,58.4519864 C25.633469,56.0124166 25.303251,53.8019777 24.9359677,51.3556688 L14.2207303,51.3556688 C13.9343167,50.7120807 13.5670334,49.8966444 13.0717064,48.7914249 C9.43256922,47.9085972 5.20375698,47.3256613 3.39092751,41.7726075 C7.12441274,40.6168444 10.6422454,39.5284728 14.8609489,38.2244487 C10.8511588,35.4411826 5.97201928,35.3299868 3.55940609,30.5586735 C5.72941014,29.7634546 7.62984846,29.0693229 10.3052882,28.0887776 C8.10158847,26.9026884 6.35952001,25.962578 4.20973339,24.8034454 C5.05549584,23.7420304 5.77658414,22.8389852 6.50104201,21.9292009 C4.61745154,19.6176748 2.72712193,17.2960401 0.725596456,14.8396225 C4.43886425,13.0335321 4.43886425,13.0335321 9.96496151,14.3207084 C10.6725715,13.781577 11.5284427,13.1346193 12.5224663,12.3832048 C14.9081229,14.206143 17.2230185,15.975168 20.1410674,18.2058244 C19.6154143,14.890166 19.2043266,12.3124438 18.6753038,9.00015504 C25.1482507,10.3075488 27.8472775,14.418426 29.8656508,19.1627827 C31.264023,22.4481149 32.278264,25.9255127 35.8028358,28.0314949 C33.6429405,21.2215909 30.8192395,14.5464697 32.7230474,7.24797786 C37.2281645,5.64069225 38.8084936,10.2367878 42.3701306,11.0623328 C48.4757942,8.88222004 50.7401463,14.4689696 54.429827,18.0339762 C55.0801543,16.0189725 55.6765685,14.182556 56.2696131,12.3461395 C56.6672225,12.2619003 57.064832,12.1810305 57.4624414,12.1001608 C58.6148349,14.1623386 59.9154895,16.1537553 60.8892956,18.2968028 C64.6834331,26.6499706 64.3970195,35.6635743 64.4307153,44.481743 C64.4711501,53.8929562 69.0167021,60.1704679 76.8172601,64.1566709 C83.9674908,67.8059169 91.5355484,70.6464657 98.9587144,73.7464714 C100.229043,74.2788637 101.701546,74.3125595 103.433505,74.6427775 C103.201005,70.1309212 100.95687,67.3038507 97.9545821,65.3259123 C95.1275116,63.4692784 91.8792447,62.2157978 88.7455432,60.8645996 C84.375209,58.9810091 79.8869397,57.3636148 75.5604099,55.3924155 C74.1687769,54.758936 73.1208402,53.367303 71.722468,52.1576268 C72.4873607,51.1669728 73.0130139,50.4863194 73.2994275,50.1156665 C70.9980101,46.8505517 68.7808321,43.7067415 66.2940883,40.1821697 C72.5884479,36.8125982 78.0673711,37.8942307 83.5698814,39.6733644 L83.7046643,39.7980386 L83.50249,39.7036906 C80.8304198,37.5909692 78.1010668,35.5422698 75.4997576,33.3419396 C73.0264922,31.2460661 70.4824657,29.1670405 68.3663748,26.7375794 C67.318438,25.538012 67.1600682,23.5634431 66.6681107,22.1347448 C70.7217053,18.3473464 74.2058422,21.9325705 77.7405227,21.8988747 C78.0774798,22.3268103 78.4110674,22.7547459 78.7480246,23.1826815 C78.8996553,22.9535506 79.0546556,22.7244198 79.2062863,22.4952889 C78.6873723,22.3301799 78.1684583,22.1650709 77.6461747,21.9999619 C76.6049771,20.591481 75.5300838,19.2032175 74.5225819,17.7711497 C73.255623,15.9717985 72.0425773,14.1320124 70.2904001,11.5542902 L76.8071514,11.5542902 C77.5046527,8.73058932 75.0853003,5.15210439 79.3882432,2.86079577 C81.4369426,4.03003708 83.6608598,5.3037351 86.0532556,6.67178113 C87.5729323,4.85558209 89.1229352,3.00568734 90.8852211,0.899705152 C95.6329474,5.6710184 96.2158832,10.8567889 93.5808783,16.5142995 C94.0256618,18.3439768 94.4367495,20.0456104 95.1140334,22.8592026 C97.2267547,17.1343006 96.9841455,11.0117892 103.824376,8.84852432 C105.593401,11.5273337 107.264708,14.0612514 108.740581,16.2952773 C108.497971,24.0789875 102.159807,29.8813896 103.858071,37.9852091 C105.027313,29.5579108 109.626778,24.0958354 116.709617,20.1803933 C122.047018,25.2886637 121.817888,30.9899787 118.957121,37.7156434 C121.359626,36.9608594 122.950064,36.4621628 124.884198,35.8556399 C125.561481,38.7602105 124.287783,40.7684752 122.943324,42.7531528 C118.158533,49.8225138 113.090697,56.7233962 110.169279,64.8676505 C109.785148,65.9425438 109.128081,66.9230892 108.750689,67.9979825 C106.637968,73.9823414 107.32536,76.5836506 113.124393,79.1141988 C121.231582,82.6522489 129.655511,85.4557324 137.907591,88.6635645 C146.146194,91.868027 154.340992,95.1904245 162.562746,98.442061 C163.149052,98.6745614 163.796009,98.7419528 164.355358,98.8733661 C167.421668,93.9268352 169.571455,86.3048644 169.045802,81.5840948 C165.827861,80.7652889 162.316767,80.0981137 158.964044,78.9693073 C154.162404,77.3519129 149.340548,75.6772359 144.784887,73.4937536 C141.721946,72.02799 139.107159,69.6355942 137.900852,66.0840658 C140.835749,62.8021032 144.185103,63.8736269 148.424024,65.1911294 C144.751191,60.4804684 139.107159,57.6028544 141.347924,50.8839288 C142.867601,51.3017557 144.255864,51.6892564 146.085541,52.1946921 C145.613801,48.4308808 144.434451,44.6097867 147.679349,41.327824 L151.069138,41.327824 C151.631856,39.8283647 152.130553,38.5041231 152.804467,36.7014024 C149.23946,32.725308 150.34468,27.5934506 150.984898,21.6798526 C153.512077,22.8693113 155.597842,23.8464871 157.686976,24.8270324 L157.784694,25.0730111 L157.592628,24.9146412 Z" id="Fill-1"></path>
                </g>
                <g id="Wordmark" transform="translate(252.000000, 0.000000)" fill="#4A4A4A">
                    <text id="CHERVIL" font-family="Avenir-Medium, Avenir" font-size="144" font-weight="400" letter-spacing="10">
                        <tspan x="0.732" y="144">CHERVIL</tspan>
                    </text>
                    <text id="Computational-Human" font-family="Avenir-Book, Avenir" font-size="20" font-weight="normal" letter-spacing="1.38888884">
                        <tspan x="5.84777934" y="189">Computational Human Endogenous RetroViral Infection Labeler</tspan>
                    </text>
                </g>
            </g>
        </g>
    </g>
</svg>